<svg width="143.19496mm" height="104.30615mm" viewBox="8.103580474853516 22.46021270751953 91.88400268554688 69.13712310791016" version="1.1" id="svg10280" xmlns="http://www.w3.org/2000/svg">
  <defs id="defs10274"></defs>
  <g id="layer1" transform="translate(-22.613419,-96.097789)">
    <path id="path4891-1-50-8-2-1" style="fill:#afabab;fill-opacity:1;fill-rule:evenodd;stroke:#ffffff;stroke-width:0.56897205;stroke-miterlimit:4;stroke-dasharray:none;stroke-opacity:1" d="M 30.717 141.872 L 53.114 141.872 L 53.114 130.902 L 30.717 130.902 L 30.717 141.872 Z"></path>
    <path id="path4891-1-50-8-2-7" style="fill:#afabab;fill-opacity:1;fill-rule:evenodd;stroke:#ffffff;stroke-width:0.56897205;stroke-miterlimit:4;stroke-dasharray:none;stroke-opacity:1" d="M 54.489 129.527 L 76.886 129.527 L 76.886 118.558 L 54.489 118.558 L 54.489 129.527 Z"></path>
    <path id="path4891-1-50-8-2-1-9" style="fill:#afabab;fill-opacity:0.39215686;fill-rule:evenodd;stroke:#ffffff;stroke-width:0.56897205;stroke-miterlimit:4;stroke-dasharray:none;stroke-opacity:1" d="M 54.489 141.872 L 76.886 141.872 L 76.886 130.902 L 54.489 130.902 L 54.489 141.872 Z"></path>
    <path id="path4891-1-50-8-2-2" style="fill:#afabab;fill-opacity:1;fill-rule:evenodd;stroke:#ffffff;stroke-width:0.56897205;stroke-miterlimit:4;stroke-dasharray:none;stroke-opacity:1" d="M 30.717 153.302 L 53.114 153.302 L 53.114 142.332 L 30.717 142.332 L 30.717 153.302 Z"></path>
    <path id="path4891-1-50-8-2-7-5" style="fill:#afabab;fill-opacity:0.39215686;fill-rule:evenodd;stroke:#ffffff;stroke-width:0.56897205;stroke-miterlimit:4;stroke-dasharray:none;stroke-opacity:1" d="M 54.489 153.302 L 76.886 153.302 L 76.886 142.332 L 54.489 142.332 L 54.489 153.302 Z"></path>
    <path id="path4891-1-50-8-2-6" style="fill:#afabab;fill-opacity:1;fill-rule:evenodd;stroke:#ffffff;stroke-width:0.56897205;stroke-miterlimit:4;stroke-dasharray:none;stroke-opacity:1" d="M 77.346 129.527 L 99.743 129.527 L 99.743 118.558 L 77.346 118.558 L 77.346 129.527 Z"></path>
    <path id="path4891-1-50-8-2-1-5" style="fill:#afabab;fill-opacity:0.39215686;fill-rule:evenodd;stroke:#ffffff;stroke-width:0.56897205;stroke-miterlimit:4;stroke-dasharray:none;stroke-opacity:1" d="M 77.346 141.872 L 99.743 141.872 L 99.743 130.902 L 77.346 130.902 L 77.346 141.872 Z"></path>
    <path id="path4891-1-50-8-2-2-3" style="fill:#afabab;fill-opacity:0.39215686;fill-rule:evenodd;stroke:#ffffff;stroke-width:0.56897205;stroke-miterlimit:4;stroke-dasharray:none;stroke-opacity:1" d="M 77.346 153.302 L 99.743 153.302 L 99.743 142.332 L 77.346 142.332 L 77.346 153.302 Z"></path>
    <path id="path4891-1-50-8-2-1-7-5" style="fill:#afabab;fill-opacity:1;fill-rule:evenodd;stroke:#ffffff;stroke-width:0.56897205;stroke-miterlimit:4;stroke-dasharray:none;stroke-opacity:1" d="M 30.717 176.162 L 53.114 176.162 L 53.114 165.193 L 30.717 165.193 L 30.717 176.162 Z"></path>
    <path id="path4891-1-50-8-2-1-9-8-0" style="fill:#afabab;fill-opacity:0.39215686;fill-rule:evenodd;stroke:#ffffff;stroke-width:0.56897205;stroke-miterlimit:4;stroke-dasharray:none;stroke-opacity:1" d="M 54.489 176.162 L 76.886 176.162 L 76.886 165.193 L 54.489 165.193 L 54.489 176.162 Z"></path>
    <path id="path4891-1-50-8-2-1-7-8-5" style="fill:#afabab;fill-opacity:0.39215686;fill-rule:evenodd;stroke:#ffffff;stroke-width:0.56897205;stroke-miterlimit:4;stroke-dasharray:none;stroke-opacity:1" d="M 77.346 176.162 L 99.743 176.162 L 99.743 165.193 L 77.346 165.193 L 77.346 176.162 Z"></path>
    <path id="path4891-1-50-8-2-1-7-5-2" style="fill:#afabab;fill-opacity:1;fill-rule:evenodd;stroke:#ffffff;stroke-width:0.56897205;stroke-miterlimit:4;stroke-dasharray:none;stroke-opacity:1" d="M 30.717 187.592 L 53.114 187.592 L 53.114 176.623 L 30.717 176.623 L 30.717 187.592 Z"></path>
    <path id="path4891-1-50-8-2-1-9-8-0-7" style="fill:#afabab;fill-opacity:0.39215686;fill-rule:evenodd;stroke:#ffffff;stroke-width:0.56897205;stroke-miterlimit:4;stroke-dasharray:none;stroke-opacity:1" d="M 54.489 187.592 L 76.886 187.592 L 76.886 176.623 L 54.489 176.623 L 54.489 187.592 Z"></path>
    <path id="path4891-1-50-8-2-1-7-8-5-2" style="fill:#afabab;fill-opacity:0.39215686;fill-rule:evenodd;stroke:#ffffff;stroke-width:0.56897205;stroke-miterlimit:4;stroke-dasharray:none;stroke-opacity:1" d="M 77.346 187.592 L 99.743 187.592 L 99.743 176.623 L 77.346 176.623 L 77.346 187.592 Z"></path>
    <path id="path4891-1-50-8-2-7-8" style="fill:#afabab;fill-opacity:1;fill-rule:evenodd;stroke:#ffffff;stroke-width:0.56897205;stroke-miterlimit:4;stroke-dasharray:none;stroke-opacity:1" d="M 100.204 129.527 L 122.601 129.527 L 122.601 118.558 L 100.204 118.558 L 100.204 129.527 Z"></path>
    <path id="path4891-1-50-8-2-1-9-4" style="fill:#afabab;fill-opacity:0.39215686;fill-rule:evenodd;stroke:#ffffff;stroke-width:0.56897205;stroke-miterlimit:4;stroke-dasharray:none;stroke-opacity:1" d="M 100.204 141.872 L 122.601 141.872 L 122.601 130.902 L 100.204 130.902 L 100.204 141.872 Z"></path>
    <path id="path4891-1-50-8-2-7-5-5" style="fill:#afabab;fill-opacity:0.39215686;fill-rule:evenodd;stroke:#ffffff;stroke-width:0.56897205;stroke-miterlimit:4;stroke-dasharray:none;stroke-opacity:1" d="M 100.204 153.302 L 122.601 153.302 L 122.601 142.332 L 100.204 142.332 L 100.204 153.302 Z"></path>
    <path id="path4891-1-50-8-2-1-9-8-2-7" style="fill:#afabab;fill-opacity:0.39215686;fill-rule:evenodd;stroke:#ffffff;stroke-width:0.56897205;stroke-miterlimit:4;stroke-dasharray:none;stroke-opacity:1" d="M 100.204 176.162 L 122.601 176.162 L 122.601 165.193 L 100.204 165.193 L 100.204 176.162 Z"></path>
    <path id="path4891-1-50-8-2-1-9-8-2-7-1" style="fill:#afabab;fill-opacity:0.39215686;fill-rule:evenodd;stroke:#ffffff;stroke-width:0.56897205;stroke-miterlimit:4;stroke-dasharray:none;stroke-opacity:1" d="M 100.204 187.592 L 122.601 187.592 L 122.601 176.623 L 100.204 176.623 L 100.204 187.592 Z"></path>
    <path d="M 30.717 164.732 L 53.114 164.732 L 53.114 153.763 L 30.717 153.763 L 30.717 164.732 Z" style="fill:#afabab;fill-opacity:1;fill-rule:evenodd;stroke:#ffffff;stroke-width:0.56897205;stroke-miterlimit:4;stroke-dasharray:none;stroke-opacity:1" id="path4891-1-50-8-2-1-7"></path>
    <path d="M 54.489 164.732 L 76.886 164.732 L 76.886 153.763 L 54.489 153.763 L 54.489 164.732 Z" style="fill:#afabab;fill-opacity:0.39215686;fill-rule:evenodd;stroke:#ffffff;stroke-width:0.56897205;stroke-miterlimit:4;stroke-dasharray:none;stroke-opacity:1" id="path4891-1-50-8-2-1-9-8"></path>
    <path d="M 77.346 164.732 L 99.743 164.732 L 99.743 153.763 L 77.346 153.763 L 77.346 164.732 Z" style="fill:#afabab;fill-opacity:0.39215686;fill-rule:evenodd;stroke:#ffffff;stroke-width:0.56897205;stroke-miterlimit:4;stroke-dasharray:none;stroke-opacity:1" id="path4891-1-50-8-2-1-7-8"></path>
    <path d="M 100.204 164.732 L 122.601 164.732 L 122.601 153.763 L 100.204 153.763 L 100.204 164.732 Z" style="fill:#afabab;fill-opacity:0.39215686;fill-rule:evenodd;stroke:#ffffff;stroke-width:0.56897205;stroke-miterlimit:4;stroke-dasharray:none;stroke-opacity:1" id="path4891-1-50-8-2-1-9-8-2"></path>
    <text id="text47247-9-6" y="123.645" x="58.233" style="font-style: normal; font-weight: normal; font-size: 10.5833px; line-height: 1.25; font-family: sans-serif; letter-spacing: 0px; word-spacing: 0px; fill: rgb(0, 0, 0); fill-opacity: 1; stroke: none; stroke-width: 0.293997; white-space: pre;" transform="matrix(0.899907, 0, 0, 0.9, 9.436417, 14.825088)"><tspan style="font-style: normal; font-variant: normal; font-weight: normal; font-stretch: normal; font-size: 7.1px; font-family: monospace; stroke-width: 0.293997; word-spacing: 0px;" y="123.645" x="58.233" id="tspan47245-7-7">id</tspan></text>
    <text id="text-1" style="font-style: normal; font-weight: normal; font-size: 10.5833px; line-height: 1.25; font-family: sans-serif; letter-spacing: 0px; word-spacing: 0px; fill: rgb(0, 0, 0); fill-opacity: 1; stroke: none; stroke-width: 0.293997; white-space: pre;" transform="matrix(0.899907, 0, 0, 0.9, 28.470566, 14.825081)" x="58.233" y="123.645"><tspan style="font-style: normal; font-variant: normal; font-weight: normal; font-stretch: normal; font-size: 7.1px; font-family: monospace; stroke-width: 0.293997; word-spacing: 0px;" y="123.645" x="58.233" id="tspan-1">time</tspan></text>
    <g transform="matrix(1, 0, 0, 1, -0.287224, 0.125874)">
      <text id="text47247-9" y="123.645" x="107.216" style="font-style: normal; font-weight: normal; font-size: 10.5833px; line-height: 1.25; font-family: sans-serif; letter-spacing: 0px; word-spacing: 0px; fill: rgb(0, 0, 0); fill-opacity: 1; stroke: none; stroke-width: 0.293997; white-space: pre;" transform="matrix(0.899907, 0, 0, 0.9, 9.436417, 14.825088)"><tspan style="font-style: normal; font-variant: normal; font-weight: normal; font-stretch: normal; font-size: 7.1px; font-family: monospace; stroke-width: 0.293997; word-spacing: 0px;" y="123.645" x="107.216" id="tspan47245-7">var</tspan></text>
    </g>
    <g transform="matrix(1, 0, 0, 1, -44.080147, 12.470371)">
      <text id="text-6" y="123.645" x="107.216" style="font-style: normal; font-weight: normal; font-size: 10.5833px; line-height: 1.25; font-family: sans-serif; letter-spacing: 0px; word-spacing: 0px; fill: rgb(0, 0, 0); fill-opacity: 1; stroke: none; stroke-width: 0.293997; white-space: pre;" transform="matrix(0.899907, 0, 0, 0.9, 9.436417, 14.825088)"><tspan style="font-style: normal; font-variant: normal; font-weight: normal; font-stretch: normal; font-size: 7.1px; font-family: monospace; stroke-width: 0.293997; word-spacing: 0px;" y="123.645" x="107.216" id="tspan-4">id</tspan></text>
      <text id="text-7" style="font-family: monospace; font-size: 4.44444px; line-height: 8.875px; stroke-width: 0.293997px; white-space: pre;" transform="matrix(0.899907, 0, 0, 0.9, 17.128678, 16.706234)" x="107.216" y="123.645">1</text>
    </g>
    <g transform="matrix(1, 0, 0, 1, -44.080147, 23.900378)">
      <text id="text-8" y="123.645" x="107.216" style="font-style: normal; font-weight: normal; font-size: 10.5833px; line-height: 1.25; font-family: sans-serif; letter-spacing: 0px; word-spacing: 0px; fill: rgb(0, 0, 0); fill-opacity: 1; stroke: none; stroke-width: 0.293997; white-space: pre;" transform="matrix(0.899907, 0, 0, 0.9, 9.436417, 14.825088)"><tspan style="font-style: normal; font-variant: normal; font-weight: normal; font-stretch: normal; font-size: 7.1px; font-family: monospace; stroke-width: 0.293997; word-spacing: 0px;" y="123.645" x="107.216" id="tspan-5">id</tspan></text>
      <text id="text-9" style="font-family: monospace; font-size: 4.44444px; line-height: 8.875px; stroke-width: 0.293997px; white-space: pre;" transform="matrix(0.899907, 0, 0, 0.9, 17.128678, 16.706234)" x="107.216" y="123.645">1</text>
    </g>
    <text id="text-10" y="123.645" x="107.216" style="font-style: normal; font-weight: normal; font-size: 10.5833px; line-height: 1.25; font-family: sans-serif; letter-spacing: 0px; word-spacing: 0px; fill: rgb(0, 0, 0); fill-opacity: 1; stroke: none; stroke-width: 0.293997; white-space: pre;" transform="matrix(0.899907, 0, 0, 0.9, -36.081357, 50.155965)"><tspan style="font-style: normal; font-variant: normal; font-weight: normal; font-stretch: normal; font-size: 7.1px; font-family: monospace; stroke-width: 0.293997; word-spacing: 0px;" y="123.645" x="107.216" id="tspan-6">...</tspan></text>
    <g transform="matrix(1, 0, 0, 1, -44.079999, 46.838822)">
      <text id="text-11" y="123.645" x="107.216" style="font-style: normal; font-weight: normal; font-size: 10.5833px; line-height: 1.25; font-family: sans-serif; letter-spacing: 0px; word-spacing: 0px; fill: rgb(0, 0, 0); fill-opacity: 1; stroke: none; stroke-width: 0.293997; white-space: pre;" transform="matrix(0.899907, 0, 0, 0.9, 9.436417, 14.825088)"><tspan style="font-style: normal; font-variant: normal; font-weight: normal; font-stretch: normal; font-size: 7.1px; font-family: monospace; stroke-width: 0.293997; word-spacing: 0px;" y="123.645" x="107.216" id="tspan-7">id</tspan></text>
      <text id="text-12" style="font-family: monospace; font-size: 4.44444px; line-height: 8.875px; stroke-width: 0.293997px; white-space: pre;" transform="matrix(0.899907, 0, 0, 0.9, 17.128678, 16.706234)" x="107.216" y="123.645">N</text>
    </g>
    <g transform="matrix(1, 0, 0, 1, -44.079999, 58.268823)">
      <text id="text-13" y="123.645" x="107.216" style="font-style: normal; font-weight: normal; font-size: 10.5833px; line-height: 1.25; font-family: sans-serif; letter-spacing: 0px; word-spacing: 0px; fill: rgb(0, 0, 0); fill-opacity: 1; stroke: none; stroke-width: 0.293997; white-space: pre;" transform="matrix(0.899907, 0, 0, 0.9, 9.436417, 14.825088)"><tspan style="font-style: normal; font-variant: normal; font-weight: normal; font-stretch: normal; font-size: 7.1px; font-family: monospace; stroke-width: 0.293997; word-spacing: 0px;" y="123.645" x="107.216" id="tspan-8">id</tspan></text>
      <text id="text-14" style="font-family: monospace; font-size: 4.44444px; line-height: 8.875px; stroke-width: 0.293997px; white-space: pre;" transform="matrix(0.899907, 0, 0, 0.9, 17.128678, 16.706234)" x="107.216" y="123.645">N</text>
    </g>
    <g transform="matrix(1, 0, 0, 1, -3.005822, 17.431189)">
      <text id="text-15" y="123.645" x="107.216" style="font-style: normal; font-weight: normal; font-size: 10.5833px; line-height: 1.25; font-family: sans-serif; letter-spacing: 0px; word-spacing: 0px; fill: rgb(0, 0, 0); fill-opacity: 1; stroke: none; stroke-width: 0.293997; white-space: pre;" transform="matrix(0.899907, 0, 0, 0.9, 12.87422, 14.825088)"><tspan style="font-style: normal; font-variant: normal; font-weight: normal; font-stretch: normal; font-size: 7.1px; font-family: monospace; stroke-width: 0.293997; word-spacing: 0px;" y="123.645" x="107.216" id="tspan-9">TS</tspan></text>
      <text id="text-16" style="font-family: monospace; font-size: 4.44444px; line-height: 8.875px; stroke-width: 0.293997px; white-space: pre;" transform="matrix(0.899907, 0, 0, 0.9, 20.566481, 16.706234)" x="107.216" y="123.645">1</text>
    </g>
    <rect y="130.92" x="17.299" height="22.403" width="22.397" id="rect-1" style="stroke: rgb(0, 0, 0); stroke-width: 0.293997; stroke-opacity: 1; fill-opacity: 0.25; fill: rgb(222, 139, 0);" transform="matrix(0.999998, 0.002177, 0, 1.000002, 82.905191, -0.031921)"></rect>
    <g transform="matrix(1, 0, 0, 1, -3.005815, 51.870618)">
      <text id="text-17" y="123.645" x="107.216" style="font-style: normal; font-weight: normal; font-size: 10.5833px; line-height: 1.25; font-family: sans-serif; letter-spacing: 0px; word-spacing: 0px; fill: rgb(0, 0, 0); fill-opacity: 1; stroke: none; stroke-width: 0.293997; white-space: pre;" transform="matrix(0.899907, 0, 0, 0.9, 12.87422, 14.825088)"><tspan style="font-style: normal; font-variant: normal; font-weight: normal; font-stretch: normal; font-size: 7.1px; font-family: monospace; stroke-width: 0.293997; word-spacing: 0px;" y="123.645" x="107.216" id="tspan-10">TS</tspan></text>
      <text id="text-18" style="font-family: monospace; font-size: 4.44444px; line-height: 8.875px; stroke-width: 0.293997px; white-space: pre;" transform="matrix(0.899907, 0, 0, 0.9, 20.566481, 16.706234)" x="107.216" y="123.645">N</text>
    </g>
    <rect y="130.92" x="17.299" height="22.403" width="22.397" id="rect-2" style="stroke: rgb(0, 0, 0); stroke-width: 0.293997; stroke-opacity: 1; fill-opacity: 0.25; fill: rgb(222, 139, 0);" transform="matrix(0.999998, 0.002177, 0, 1.000002, 82.905198, 34.182267)"></rect>
  </g>
</svg>
