<svg width="143.19496mm" height="104.30615mm" viewBox="8.103580474853516 22.46021270751953 114.281005859375 34.84612274169922" version="1.1" id="svg10280" xmlns="http://www.w3.org/2000/svg">
  <defs id="defs10274"/>
  <g id="layer1" transform="translate(-22.613419,-96.097789)">
    <path id="path4891-1-50-8-2-1" style="fill:#afabab;fill-opacity:1;fill-rule:evenodd;stroke:#ffffff;stroke-width:0.56897205;stroke-miterlimit:4;stroke-dasharray:none;stroke-opacity:1" d="M 30.717 141.872 L 53.114 141.872 L 53.114 130.902 L 30.717 130.902 L 30.717 141.872 Z"/>
    <path id="path4891-1-50-8-2-7" style="fill:#afabab;fill-opacity:1;fill-rule:evenodd;stroke:#ffffff;stroke-width:0.56897205;stroke-miterlimit:4;stroke-dasharray:none;stroke-opacity:1" d="M 54.489 129.527 L 76.886 129.527 L 76.886 118.558 L 54.489 118.558 L 54.489 129.527 Z"/>
    <path id="path4891-1-50-8-2-2" style="fill:#afabab;fill-opacity:1;fill-rule:evenodd;stroke:#ffffff;stroke-width:0.56897205;stroke-miterlimit:4;stroke-dasharray:none;stroke-opacity:1" d="M 30.717 153.302 L 53.114 153.302 L 53.114 142.332 L 30.717 142.332 L 30.717 153.302 Z"/>
    <path id="path4891-1-50-8-2-6" style="fill:#afabab;fill-opacity:1;fill-rule:evenodd;stroke:#ffffff;stroke-width:0.56897205;stroke-miterlimit:4;stroke-dasharray:none;stroke-opacity:1" d="M 77.346 129.527 L 99.743 129.527 L 99.743 118.558 L 77.346 118.558 L 77.346 129.527 Z"/>
    <path id="path4891-1-50-8-2-1-5" style="fill:#afabab;fill-opacity:0.39215686;fill-rule:evenodd;stroke:#ffffff;stroke-width:0.56897205;stroke-miterlimit:4;stroke-dasharray:none;stroke-opacity:1" d="M 54.747 141.898 L 77.144 141.898 L 77.144 130.928 L 54.747 130.928 L 54.747 141.898 Z"/>
    <path id="path4891-1-50-8-2-2-3" style="fill:#afabab;fill-opacity:0.39215686;fill-rule:evenodd;stroke:#ffffff;stroke-width:0.56897205;stroke-miterlimit:4;stroke-dasharray:none;stroke-opacity:1" d="M 54.747 153.328 L 77.144 153.328 L 77.144 142.358 L 54.747 142.358 L 54.747 153.328 Z"/>
    <path id="path-2" style="fill:#afabab;fill-opacity:0.39215686;fill-rule:evenodd;stroke:#ffffff;stroke-width:0.56897205;stroke-miterlimit:4;stroke-dasharray:none;stroke-opacity:1" d="M 100.002 141.872 L 122.399 141.872 L 122.399 130.902 L 100.002 130.902 L 100.002 141.872 Z"/>
    <path id="path4891-1-50-8-2-1-9-4" style="fill:#afabab;fill-opacity:0.39215686;fill-rule:evenodd;stroke:#ffffff;stroke-width:0.56897205;stroke-miterlimit:4;stroke-dasharray:none;stroke-opacity:1" d="M 77.605 141.898 L 100.002 141.898 L 100.002 130.928 L 77.605 130.928 L 77.605 141.898 Z"/>
    <path id="path-3" style="fill:#afabab;fill-opacity:0.39215686;fill-rule:evenodd;stroke:#ffffff;stroke-width:0.56897205;stroke-miterlimit:4;stroke-dasharray:none;stroke-opacity:1" d="M 100.002 153.302 L 122.399 153.302 L 122.399 142.332 L 100.002 142.332 L 100.002 153.302 Z"/>
    <path id="path4891-1-50-8-2-7-5-5" style="fill:#afabab;fill-opacity:0.39215686;fill-rule:evenodd;stroke:#ffffff;stroke-width:0.56897205;stroke-miterlimit:4;stroke-dasharray:none;stroke-opacity:1" d="M 77.605 153.328 L 100.002 153.328 L 100.002 142.358 L 77.605 142.358 L 77.605 153.328 Z"/>
    <text id="text-1" style="font-style: normal; font-weight: normal; font-size: 10.5833px; line-height: 1.25; font-family: sans-serif; letter-spacing: 0px; word-spacing: 0px; fill: rgb(0, 0, 0); fill-opacity: 1; stroke: none; stroke-width: 0.293997; white-space: pre;" transform="matrix(0.899907, 0, 0, 0.9, 5.591591, 14.825081)" x="58.233" y="123.645"><tspan style="font-style: normal; font-variant: normal; font-weight: normal; font-stretch: normal; font-size: 7.1px; font-family: monospace; stroke-width: 0.293997; word-spacing: 0px;" y="123.645" x="58.233" id="tspan-1">time</tspan></text>
    <rect y="130.92" x="17.299" height="22.403" width="22.397" id="rect-1" style="stroke: rgb(0, 0, 0); stroke-width: 0.293997; stroke-opacity: 1; fill-opacity: 0.25; fill: rgb(222, 139, 0);" transform="matrix(0.999998, 0.002177, 0, 1.000002, 60.306245, -0.005607)"/>
    <g transform="matrix(1, 0, 0, 1, -25.605025, 17.457503)">
      <text id="text-15" y="123.645" x="107.216" style="font-style: normal; font-weight: normal; font-size: 10.5833px; line-height: 1.25; font-family: sans-serif; letter-spacing: 0px; word-spacing: 0px; fill: rgb(0, 0, 0); fill-opacity: 1; stroke: none; stroke-width: 0.293997; white-space: pre;" transform="matrix(0.899907, 0, 0, 0.9, 12.87422, 14.825088)"><tspan style="font-style: normal; font-variant: normal; font-weight: normal; font-stretch: normal; font-size: 7.1px; font-family: monospace; stroke-width: 0.293997; word-spacing: 0px;" y="123.645" x="107.216" id="tspan-9">TS</tspan></text>
      <text id="text-16" style="font-family: monospace; font-size: 4.44444px; line-height: 8.875px; stroke-width: 0.293997px; white-space: pre;" transform="matrix(0.899907, 0, 0, 0.9, 20.566481, 16.706234)" x="107.216" y="123.645">1</text>
    </g>
    <g transform="matrix(1, 0, 0, 1, -22.426411, -0.000003)">
      <text id="text-2" y="123.645" x="107.216" style="font-style: normal; font-weight: normal; font-size: 10.5833px; line-height: 1.25; font-family: sans-serif; letter-spacing: 0px; word-spacing: 0px; fill: rgb(0, 0, 0); fill-opacity: 1; stroke: none; stroke-width: 0.293997; white-space: pre;" transform="matrix(0.899907, 0, 0, 0.9, 9.436417, 14.825088)"><tspan style="font-style: normal; font-variant: normal; font-weight: normal; font-stretch: normal; font-size: 7.1px; font-family: monospace; stroke-width: 0.293997; word-spacing: 0px;" y="123.645" x="107.216" id="tspan-2">id</tspan></text>
      <text id="text-3" style="font-family: monospace; font-size: 4.44444px; line-height: 8.875px; stroke-width: 0.293997px; white-space: pre;" transform="matrix(0.899907, 0, 0, 0.9, 17.128678, 16.706234)" x="107.216" y="123.645">1</text>
    </g>
    <path id="path-6" style="fill:#afabab;fill-opacity:1;fill-rule:evenodd;stroke:#ffffff;stroke-width:0.56897205;stroke-miterlimit:4;stroke-dasharray:none;stroke-opacity:1" d="M 122.601 129.527 L 144.998 129.527 L 144.998 118.558 L 122.601 118.558 L 122.601 129.527 Z"/>
    <path id="path-7" style="fill:#afabab;fill-opacity:0.39215686;fill-rule:evenodd;stroke:#ffffff;stroke-width:0.56897205;stroke-miterlimit:4;stroke-dasharray:none;stroke-opacity:1" d="M 122.601 141.872 L 144.998 141.872 L 144.998 130.902 L 122.601 130.902 L 122.601 141.872 Z"/>
    <path id="path-8" style="fill:#afabab;fill-opacity:0.39215686;fill-rule:evenodd;stroke:#ffffff;stroke-width:0.56897205;stroke-miterlimit:4;stroke-dasharray:none;stroke-opacity:1" d="M 122.601 153.302 L 144.998 153.302 L 144.998 142.332 L 122.601 142.332 L 122.601 153.302 Z"/>
    <g transform="matrix(1, 0, 0, 1, 22.828591, -0.000003)">
      <text id="text-5" y="123.645" x="107.216" style="font-style: normal; font-weight: normal; font-size: 10.5833px; line-height: 1.25; font-family: sans-serif; letter-spacing: 0px; word-spacing: 0px; fill: rgb(0, 0, 0); fill-opacity: 1; stroke: none; stroke-width: 0.293997; white-space: pre;" transform="matrix(0.899907, 0, 0, 0.9, 9.436417, 14.825088)"><tspan style="font-style: normal; font-variant: normal; font-weight: normal; font-stretch: normal; font-size: 7.1px; font-family: monospace; stroke-width: 0.293997; word-spacing: 0px;" y="123.645" x="107.216" id="tspan-4">id</tspan></text>
      <text id="text-6" style="font-family: monospace; font-size: 4.44444px; line-height: 8.875px; stroke-width: 0.293997px; white-space: pre;" transform="matrix(0.899907, 0, 0, 0.9, 17.128678, 16.706234)" x="107.216" y="123.645">N</text>
    </g>
    <path id="path-1" style="fill:#afabab;fill-opacity:1;fill-rule:evenodd;stroke:#ffffff;stroke-width:0.56897205;stroke-miterlimit:4;stroke-dasharray:none;stroke-opacity:1" d="M 100.002 129.527 L 122.399 129.527 L 122.399 118.558 L 100.002 118.558 L 100.002 129.527 Z"/>
    <text id="text-4" style="font-family: monospace; font-size: 7.1px; line-height: 8.875px; stroke-width: 0.293997px; white-space: pre;" transform="matrix(0.899907, 0, 0, 0.9, -1.65509, 44.86517)" x="107.216" y="123.645" dx="11.891" dy="-33.238">...</text>
    <rect y="130.92" x="17.299" height="22.403" width="22.397" id="rect-2" style="stroke: rgb(0, 0, 0); stroke-width: 0.293997; stroke-opacity: 1; fill-opacity: 0.25; fill: rgb(222, 139, 0);" transform="matrix(0.999998, 0.002177, 0, 1.000002, 105.302087, -0.005607)"/>
    <g transform="matrix(1, 0, 0, 1, 19.39082, 17.457503)">
      <text id="text-7" y="123.645" x="107.216" style="font-style: normal; font-weight: normal; font-size: 10.5833px; line-height: 1.25; font-family: sans-serif; letter-spacing: 0px; word-spacing: 0px; fill: rgb(0, 0, 0); fill-opacity: 1; stroke: none; stroke-width: 0.293997; white-space: pre;" transform="matrix(0.899907, 0, 0, 0.9, 12.87422, 14.825088)"><tspan style="font-style: normal; font-variant: normal; font-weight: normal; font-stretch: normal; font-size: 7.1px; font-family: monospace; stroke-width: 0.293997; word-spacing: 0px;" y="123.645" x="107.216" id="tspan-3">TS</tspan></text>
      <text id="text-8" style="font-family: monospace; font-size: 4.44444px; line-height: 8.875px; stroke-width: 0.293997px; white-space: pre;" transform="matrix(0.899907, 0, 0, 0.9, 20.566481, 16.706234)" x="107.216" y="123.645">N</text>
    </g>
  </g>
</svg>
